<svg width="91" height="91" viewBox="0 0 91 91" fill="none" xmlns="http://www.w3.org/2000/svg">
<g filter="url(#filter0_d_7_100)">
<rect x="10.2068" y="10.6024" width="60" height="60" rx="10" fill="#3F7DE3"/>
</g>
<mask id="path-2-outside-1_7_100" maskUnits="userSpaceOnUse" x="26.1419" y="26.5375" width="29" height="29" fill="black">
<rect fill="white" x="26.1419" y="26.5375" width="29" height="29"/>
<path fill-rule="evenodd" clip-rule="evenodd" d="M40.9567 28.2875C40.9567 27.8733 40.6209 27.5375 40.2067 27.5375C39.7925 27.5375 39.4567 27.8733 39.4567 28.2875V39.8524H27.8919C27.4777 39.8524 27.1419 40.1882 27.1419 40.6024C27.1419 41.0166 27.4777 41.3524 27.8919 41.3524H39.4567V52.9173C39.4567 53.3315 39.7925 53.6673 40.2067 53.6673C40.6209 53.6673 40.9567 53.3315 40.9567 52.9173V41.3524H52.5216C52.9359 41.3524 53.2716 41.0166 53.2716 40.6024C53.2716 40.1882 52.9359 39.8524 52.5216 39.8524H40.9567V28.2875Z"/>
</mask>
<path fill-rule="evenodd" clip-rule="evenodd" d="M40.9567 28.2875C40.9567 27.8733 40.6209 27.5375 40.2067 27.5375C39.7925 27.5375 39.4567 27.8733 39.4567 28.2875V39.8524H27.8919C27.4777 39.8524 27.1419 40.1882 27.1419 40.6024C27.1419 41.0166 27.4777 41.3524 27.8919 41.3524H39.4567V52.9173C39.4567 53.3315 39.7925 53.6673 40.2067 53.6673C40.6209 53.6673 40.9567 53.3315 40.9567 52.9173V41.3524H52.5216C52.9359 41.3524 53.2716 41.0166 53.2716 40.6024C53.2716 40.1882 52.9359 39.8524 52.5216 39.8524H40.9567V28.2875Z" fill="white"/>
<path d="M39.4567 39.8524V40.8524H40.4567V39.8524H39.4567ZM27.1419 40.6024H28.1419H27.1419ZM39.4567 41.3524H40.4567V40.3524H39.4567V41.3524ZM40.9567 41.3524V40.3524H39.9567V41.3524H40.9567ZM40.9567 39.8524H39.9567V40.8524H40.9567V39.8524ZM40.2067 28.5375C40.0686 28.5375 39.9567 28.4256 39.9567 28.2875H41.9567C41.9567 27.321 41.1732 26.5375 40.2067 26.5375V28.5375ZM40.4567 28.2875C40.4567 28.4256 40.3448 28.5375 40.2067 28.5375V26.5375C39.2402 26.5375 38.4567 27.321 38.4567 28.2875H40.4567ZM40.4567 39.8524V28.2875H38.4567V39.8524H40.4567ZM27.8919 40.8524H39.4567V38.8524H27.8919V40.8524ZM28.1419 40.6024C28.1419 40.7405 28.0299 40.8524 27.8919 40.8524V38.8524C26.9254 38.8524 26.1419 39.6359 26.1419 40.6024H28.1419ZM27.8919 40.3524C28.0299 40.3524 28.1419 40.4643 28.1419 40.6024H26.1419C26.1419 41.5689 26.9254 42.3524 27.8919 42.3524V40.3524ZM39.4567 40.3524H27.8919V42.3524H39.4567V40.3524ZM40.4567 52.9173V41.3524H38.4567V52.9173H40.4567ZM40.2067 52.6673C40.3448 52.6673 40.4567 52.7792 40.4567 52.9173H38.4567C38.4567 53.8838 39.2402 54.6673 40.2067 54.6673V52.6673ZM39.9567 52.9173C39.9567 52.7792 40.0686 52.6673 40.2067 52.6673V54.6673C41.1732 54.6673 41.9567 53.8838 41.9567 52.9173H39.9567ZM39.9567 41.3524V52.9173H41.9567V41.3524H39.9567ZM52.5216 40.3524H40.9567V42.3524H52.5216V40.3524ZM52.2716 40.6024C52.2716 40.4643 52.3836 40.3524 52.5216 40.3524V42.3524C53.4881 42.3524 54.2716 41.5689 54.2716 40.6024H52.2716ZM52.5216 40.8524C52.3836 40.8524 52.2716 40.7405 52.2716 40.6024H54.2716C54.2716 39.6359 53.4881 38.8524 52.5216 38.8524V40.8524ZM40.9567 40.8524H52.5216V38.8524H40.9567V40.8524ZM39.9567 28.2875V39.8524H41.9567V28.2875H39.9567Z" fill="white" mask="url(#path-2-outside-1_7_100)"/>
<defs>
<filter id="filter0_d_7_100" x="0.206757" y="0.602417" width="90" height="90" filterUnits="userSpaceOnUse" color-interpolation-filters="sRGB">
<feFlood flood-opacity="0" result="BackgroundImageFix"/>
<feColorMatrix in="SourceAlpha" type="matrix" values="0 0 0 0 0 0 0 0 0 0 0 0 0 0 0 0 0 0 127 0" result="hardAlpha"/>
<feOffset dx="5" dy="5"/>
<feGaussianBlur stdDeviation="7.5"/>
<feComposite in2="hardAlpha" operator="out"/>
<feColorMatrix type="matrix" values="0 0 0 0 0 0 0 0 0 0 0 0 0 0 0 0 0 0 0.15 0"/>
<feBlend mode="normal" in2="BackgroundImageFix" result="effect1_dropShadow_7_100"/>
<feBlend mode="normal" in="SourceGraphic" in2="effect1_dropShadow_7_100" result="shape"/>
</filter>
</defs>
</svg>
